<?xml version="1.0" standalone="no"?>
<!DOCTYPE svg PUBLIC "-//W3C//DTD SVG 20010904//EN"
 "http://www.w3.org/TR/2001/REC-SVG-20010904/DTD/svg10.dtd">
<svg version="1.0" xmlns="http://www.w3.org/2000/svg"
 width="376.000000pt" height="336.000000pt" viewBox="0 0 376.000000 336.000000"
 preserveAspectRatio="xMidYMid meet">

<g transform="translate(0.000000,336.000000) scale(0.100000,-0.100000)"
fill="#000000" stroke="none">
<path d="M1694 3200 c-680 -72 -1220 -574 -1340 -1245 -24 -133 -24 -375 -1
-505 114 -631 582 -1108 1210 -1232 158 -31 396 -31 554 0 550 109 982 487
1153 1012 56 170 74 286 74 475 -1 186 -17 291 -74 465 -63 195 -152 352 -294
519 -303 358 -811 560 -1282 511z m-156 -1176 c136 -40 196 -140 173 -285 -27
-166 -144 -301 -305 -352 -61 -19 -91 -22 -221 -21 -82 1 -168 6 -189 11 l-39
9 32 36 c30 34 34 36 67 26 31 -8 39 -7 59 12 13 12 28 43 34 69 12 49 51 382
51 430 l0 29 -52 -12 c-29 -7 -68 -20 -86 -30 -61 -32 -87 -105 -61 -173 9
-25 7 -31 -25 -60 -20 -18 -40 -33 -46 -33 -6 0 -10 29 -10 68 0 201 183 313
483 295 49 -2 110 -11 135 -19z m987 -11 c-40 -98 -41 -369 -3 -518 l13 -50
48 1 c67 1 61 -21 -16 -55 -109 -49 -101 -51 -120 31 -9 40 -19 97 -22 126 -7
50 -17 64 -30 42 -3 -5 -44 -10 -90 -10 l-85 0 -20 -40 c-12 -23 -37 -59 -57
-80 l-35 -40 41 0 c47 0 49 -5 19 -37 -20 -21 -30 -23 -122 -23 l-100 0 34 35
c22 23 43 35 61 35 49 0 71 37 168 286 48 123 78 172 131 215 29 23 37 35 28
41 -7 4 -59 8 -115 8 -189 0 -242 -48 -220 -200 6 -43 5 -46 -29 -74 -19 -16
-38 -26 -41 -22 -14 14 -15 136 -2 169 33 83 116 146 219 166 25 5 114 9 199
10 142 1 153 0 146 -16z m-665 -591 c0 -10 -11 -24 -41 -50 l-26 -23 -28 36
-27 37 33 34 34 35 28 -31 c15 -16 27 -34 27 -38z m920 0 c0 -5 -15 -23 -33
-41 l-34 -32 -28 36 -27 37 33 34 34 35 28 -31 c15 -16 27 -34 27 -38z"/>
<path d="M1286 1964 c-3 -22 -15 -124 -27 -229 -11 -104 -26 -203 -34 -221 -7
-17 -28 -42 -46 -55 l-34 -24 55 -7 c89 -10 178 -9 228 4 128 32 224 242 183
396 -26 93 -119 156 -249 168 l-70 7 -6 -39z"/>
<path d="M2380 1916 c-18 -18 -43 -52 -56 -75 -23 -41 -74 -173 -74 -192 0 -5
37 -9 83 -9 l82 0 1 155 c0 85 -1 155 -2 155 -1 0 -17 -15 -34 -34z"/>
</g>
</svg>
