<?xml version="1.0" standalone="no"?>
<!DOCTYPE svg PUBLIC "-//W3C//DTD SVG 20010904//EN"
 "http://www.w3.org/TR/2001/REC-SVG-20010904/DTD/svg10.dtd">
<svg version="1.0" xmlns="http://www.w3.org/2000/svg"
 width="338.000000pt" height="316.000000pt" viewBox="0 0 338.000000 316.000000"
 preserveAspectRatio="xMidYMid meet">

<g transform="translate(0.000000,316.000000) scale(0.100000,-0.100000)"
fill="#000000" stroke="none">
<path d="M1555 3071 c-187 -22 -337 -66 -510 -151 -156 -76 -276 -161 -400
-285 -124 -124 -209 -244 -285 -400 -112 -229 -154 -410 -154 -665 0 -255 42
-436 154 -665 76 -156 161 -276 285 -400 124 -124 244 -209 400 -285 229 -112
410 -154 665 -154 255 0 436 42 665 154 156 76 276 161 400 285 124 124 209
244 285 400 112 229 154 410 154 665 0 180 -19 308 -69 465 -38 116 -133 306
-206 410 -81 114 -239 271 -354 354 -104 73 -294 168 -410 206 -180 57 -447
86 -620 66z m457 -40 c295 -64 530 -193 748 -411 219 -219 346 -451 412 -753
32 -148 32 -446 0 -594 -63 -291 -191 -530 -396 -741 -211 -217 -467 -358
-769 -424 -148 -32 -446 -32 -594 0 -310 67 -563 209 -783 438 -193 202 -321
445 -382 727 -32 148 -32 446 0 594 61 282 189 525 382 727 252 262 527 401
915 460 77 11 373 -3 467 -23z"/>
<path d="M1054 1896 c-164 -38 -264 -145 -264 -282 0 -62 9 -69 46 -33 32 31
33 33 27 100 l-6 68 39 40 c27 26 57 44 94 55 84 25 93 23 86 -21 -3 -21 -15
-123 -27 -228 -27 -253 -48 -298 -127 -280 -22 4 -34 -1 -60 -28 l-33 -34 78
-7 c214 -19 356 -3 456 51 66 37 142 121 180 200 29 62 32 77 32 164 0 87 -2
99 -27 136 -20 30 -45 50 -94 74 -63 31 -71 33 -202 36 -91 2 -157 -2 -198
-11z m315 -63 c97 -50 137 -141 119 -275 -14 -110 -97 -230 -177 -257 -37 -12
-181 -15 -255 -5 l-46 7 40 34 c50 43 54 58 80 308 12 110 24 206 26 214 8 25
147 8 213 -26z"/>
<path d="M2075 1891 c-126 -20 -222 -94 -245 -190 -12 -51 -7 -136 9 -145 4
-3 22 10 40 28 31 32 31 34 20 77 -37 138 66 211 271 194 46 -3 87 -9 90 -12
3 -3 -6 -12 -20 -21 -76 -49 -111 -107 -186 -306 -62 -166 -96 -219 -146 -227
-21 -3 -47 -14 -59 -25 l-21 -19 48 -7 c101 -13 139 -10 163 16 19 21 20 24 6
30 -9 3 -30 6 -46 6 l-29 0 38 39 c21 22 47 58 57 80 l18 41 81 0 c57 0 88 5
103 15 21 15 22 14 28 -22 17 -110 39 -205 50 -209 14 -6 140 49 150 65 4 8
-5 10 -32 5 -29 -4 -42 -2 -52 10 -41 50 -66 372 -38 501 8 39 13 72 10 75 -8
8 -255 9 -308 1z m213 -146 c-4 -44 -6 -117 -2 -162 l6 -83 -91 0 c-50 0 -91
3 -91 8 0 12 58 158 80 201 20 39 97 128 104 120 1 -2 -1 -40 -6 -84z"/>
<path d="M1638 1322 l-31 -29 29 -36 29 -37 34 34 34 34 -22 31 c-12 17 -26
31 -32 31 -5 0 -23 -13 -41 -28z"/>
<path d="M2558 1322 l-31 -29 29 -36 29 -37 34 34 34 34 -22 31 c-12 17 -26
31 -32 31 -5 0 -23 -13 -41 -28z"/>
</g>
</svg>
